<?xml version="1.0" standalone="no"?>
<!DOCTYPE svg PUBLIC "-//W3C//DTD SVG 20010904//EN"
 "http://www.w3.org/TR/2001/REC-SVG-20010904/DTD/svg10.dtd">
<svg version="1.0" xmlns="http://www.w3.org/2000/svg"
 width="180.000000pt" height="180.000000pt" viewBox="0 0 180.000000 180.000000"
 preserveAspectRatio="xMidYMid meet">
<metadata>
Created by potrace 1.14, written by Peter Selinger 2001-2017
</metadata>
<g transform="translate(0.000000,180.000000) scale(0.100000,-0.100000)"
fill="#000000" stroke="none">
<path d="M821 1755 c-40 -25 -77 -45 -81 -45 -4 0 -13 -7 -20 -15 -7 -9 -15
-13 -18 -10 -3 3 -12 -1 -21 -9 -9 -7 -146 -89 -306 -181 -160 -92 -296 -172
-302 -177 -10 -8 -13 -55 -13 -173 l0 -163 65 -38 c36 -21 65 -41 65 -46 0 -4
-11 -13 -24 -20 -13 -7 -42 -23 -65 -36 l-41 -22 0 -168 0 -167 53 -30 c28
-16 67 -36 85 -43 17 -8 32 -18 32 -23 0 -5 4 -9 10 -9 5 0 33 -14 62 -31 72
-43 80 -48 357 -206 l243 -140 197 115 c251 146 314 183 491 286 l145 84 0
168 0 168 -68 39 -68 39 70 42 71 41 0 165 0 165 -420 243 c-230 133 -420 242
-422 242 -2 0 -36 -21 -77 -45z m199 -315 c52 -31 115 -68 140 -82 25 -14 100
-57 167 -97 68 -39 127 -71 133 -71 5 0 10 -4 10 -10 0 -5 6 -10 14 -10 7 0
19 -6 25 -14 10 -11 -2 -22 -60 -55 -39 -23 -75 -41 -80 -41 -5 0 -9 -4 -9
-10 0 -5 -26 6 -57 24 -32 18 -78 45 -103 58 -25 14 -96 55 -159 92 -62 36
-117 66 -121 66 -5 0 -10 5 -12 11 -2 7 -26 -3 -58 -23 -30 -19 -75 -46 -100
-60 -89 -50 -126 -71 -208 -119 -45 -27 -85 -49 -89 -49 -9 0 -162 91 -167 99
-3 4 50 39 116 77 67 38 142 82 167 97 25 15 54 30 64 34 9 3 17 9 17 14 0 5
4 9 9 9 5 0 59 29 121 64 69 40 119 62 129 58 9 -3 59 -31 111 -62z m-21 -482
c50 -29 91 -56 91 -59 0 -4 -41 -30 -91 -59 l-92 -53 -61 33 c-34 18 -73 41
-88 52 -14 10 -31 18 -38 18 -6 0 -10 5 -8 12 5 13 167 108 185 108 6 0 52
-24 102 -52z m-364 -308 c99 -57 197 -114 218 -127 23 -14 46 -22 55 -18 16 6
215 120 361 207 36 21 71 38 78 38 7 0 41 -17 75 -38 35 -21 72 -42 82 -46 17
-6 18 -9 5 -20 -8 -7 -133 -82 -279 -166 -146 -84 -279 -161 -296 -171 l-30
-18 -84 49 c-46 28 -85 50 -87 50 -2 0 -22 12 -45 26 -23 14 -60 36 -82 48
-137 75 -324 191 -320 198 3 5 16 14 27 19 28 12 113 62 123 71 4 4 10 6 13 4
3 -2 87 -50 186 -106z"/>
</g>
</svg>
